<svg width="636" height="100" viewBox="0 0 636 100" fill="none" xmlns="http://www.w3.org/2000/svg">
<path fill-rule="evenodd" clip-rule="evenodd" d="M488.2 1.20001C487.311 2.08901 487 11.792 487 38.665C487 73.497 487.076 74.971 488.935 75.965C490.219 76.653 491.731 76.673 493.435 76.025C495.922 75.079 496 74.78 496 66.199C496 57.973 496.182 57.178 498.585 54.924L501.17 52.5L504.335 56.465C520.916 77.241 522.904 78.984 526.555 75.954C529.535 73.481 528.02 70.193 518.5 58.474C513.275 52.042 509 46.445 509 46.034C509 45.624 513.275 41.582 518.5 37.052C524.061 32.231 528 28.054 528 26.979C528 24.672 525.39 21.992 523.179 22.027C522.255 22.041 516 26.991 509.277 33.027C502.554 39.062 496.862 44 496.628 44C496.394 44 496.176 34.733 496.145 23.406C496.106 9.26201 495.723 2.37101 494.922 1.40601C493.494 -0.314994 489.827 -0.426991 488.2 1.20001ZM388.806 23.356C386.224 24.075 383.299 25.278 382.306 26.031C377.374 29.77 374.591 32.937 372.311 37.407C370.115 41.71 369.854 43.308 370.184 50.407C370.623 59.83 372.407 64.172 378.237 70.002C383.369 75.134 390.741 77.455 399.638 76.741C418.365 75.238 429.099 55.602 421.096 37.489C416.118 26.221 401.501 19.824 388.806 23.356ZM459 23.119C457.075 23.697 454.121 25.216 452.435 26.494L449.37 28.819L448.272 25.91C447.409 23.622 446.556 23 444.287 23C439.099 23 439 23.496 439 49.629C439 70.321 439.229 74.086 440.571 75.429C442.79 77.647 445.621 77.379 447.443 74.777C448.701 72.981 449 69.351 449 55.854C449 39.547 449.058 39.084 451.473 36.214C454.653 32.435 461.299 30.517 468.089 31.417C471.441 31.862 473.664 31.693 474.591 30.924C476.672 29.198 476.318 25.241 473.971 23.985C470.973 22.38 463 21.919 459 23.119ZM556.5 22.941C550.066 24.17 547.223 25.694 542.729 30.322C531.633 41.748 532.584 60.881 544.749 70.961C552.544 77.419 565.972 78.725 575.497 73.95C581.259 71.062 582.992 68.797 581.388 66.25C579.759 63.664 577.405 63.579 571.985 65.911C566.34 68.339 558.148 68.652 554.2 66.589C549.043 63.895 542.884 55.449 544.731 53.603C545.062 53.271 553.978 53 564.544 53C586.824 53 586.664 53.062 585.571 44.826C584.716 38.375 583.081 34.423 579.526 30.206C574.386 24.111 565.333 21.254 556.5 22.941ZM617.655 23.399C615.541 24.186 612.823 25.757 611.616 26.891L609.421 28.953L608.297 25.977C607.399 23.597 606.58 23 604.209 23C602.579 23 600.732 23.618 600.105 24.374C599.302 25.341 599.044 33.105 599.232 50.6L599.5 75.453L602.355 76.456C604.811 77.32 605.474 77.133 607.105 75.119C608.797 73.029 609 70.979 609 55.966C609 39.54 609.057 39.086 611.473 36.214C614.653 32.435 621.299 30.517 628.089 31.417C633.55 32.142 636 31.094 636 28.033C636 23.267 625.285 20.56 617.655 23.399ZM295.926 24.59C294.806 25.938 295.811 29.823 302.553 50.222C311.22 76.442 312.591 78.808 317.32 75.71C319.19 74.485 320.597 70.779 324.562 56.636C327.268 46.981 329.755 39.401 330.089 39.791C330.422 40.181 332.659 47.88 335.059 56.9C337.459 65.92 340.2 74.245 341.15 75.4C342.762 77.358 343.069 77.397 345.689 75.986C348.195 74.637 349.351 71.953 356.353 51.215C364.884 25.948 365.276 23 360.103 23C358.531 23 356.787 23.562 356.227 24.25C355.667 24.938 352.814 33.037 349.887 42.25C346.96 51.463 344.308 59 343.994 59C343.681 59 341.681 52.138 339.551 43.75C334.78 24.968 333.883 23 330.097 23C328.528 23 326.82 23.563 326.301 24.25C325.782 24.938 323.179 33.055 320.517 42.288C317.855 51.522 315.354 58.722 314.959 58.288C314.564 57.855 312.125 50.75 309.538 42.5C306.951 34.25 304.187 26.487 303.394 25.25C301.711 22.621 297.843 22.279 295.926 24.59ZM405.162 33.6C413.248 37.731 416.496 51.273 411.45 59.816C407.422 66.634 398.34 69.547 390.475 66.543C382.477 63.489 378.324 55.001 380.121 45.382C382.237 34.055 394.633 28.222 405.162 33.6ZM567.8 32.405C571.649 34.408 574.902 38.172 575.954 41.84L576.86 45H560.417H543.973L545.508 41.327C547.609 36.297 548.858 34.975 553.5 32.863C558.31 30.676 564.118 30.489 567.8 32.405Z" fill="#5C6061"/>
<path fill-rule="evenodd" clip-rule="evenodd" d="M219.2 1.2C218.318 2.082 218.006 10.497 218.022 32.95C218.042 60.525 218.224 63.897 219.896 67.579C220.915 69.822 222.944 72.597 224.404 73.746C227.677 76.32 234.141 77.53 236.857 76.076C241.379 73.656 240.179 67.013 235.215 66.985C228.313 66.946 228 65.416 228 31.766C228 0.384998 227.939 0 223 0C221.57 0 219.86 0.540001 219.2 1.2ZM2.115 6.632C0.0490017 8.079 0 8.75 0 35.606C0 64.535 0.206 66.044 4.868 71.352C8.3 75.259 15.838 77.759 20.59 76.567C26.312 75.131 25.869 67 20.068 67C15.882 67 12.41 65.195 11.11 62.343C10.472 60.943 10 54.182 10 46.453V33H15.465C19.906 33 21.13 32.625 22 31C22.76 29.579 22.76 28.421 22 27C21.13 25.375 19.906 25 15.465 25H10V17.191C10 9.307 9.109 6.835 5.865 5.715C4.965 5.405 3.278 5.817 2.115 6.632ZM68.441 23.418C66.639 24.734 66.478 26.405 66.197 46.822C66.03 58.915 66.283 70.313 66.76 72.152C67.901 76.556 71.98 78.233 74.97 75.527C76.848 73.828 77 72.499 77 57.813C77 40.69 77.863 36.61 82.117 33.631C85.676 31.138 92.33 31.52 95.694 34.411L98.5 36.823L99 55.261C99.534 74.938 100.062 77 104.566 77C109.176 77 110 73.939 110 56.811C110 39.576 111.047 35.211 115.686 33.097C119.786 31.229 125.219 31.785 128.5 34.408L131.5 36.806L131.811 55.303C132.091 71.971 132.309 73.97 134.02 75.519C136.646 77.895 140.762 76.73 142.138 73.222C142.813 71.502 143.039 64.381 142.754 53.878C142.361 39.422 142.019 36.67 140.126 32.76C135.21 22.604 133.241 22.098 98.441 22.044C75.75 22.008 70.011 22.271 68.441 23.418ZM176.897 22.934C165.146 25.229 156.023 36.86 156.006 49.568C155.99 61.071 163.642 72.06 174.085 75.528C181.465 77.98 191.093 77.163 197.791 73.517C203.397 70.466 204.513 68.828 202.961 65.928C201.625 63.432 198.413 63.488 192.485 66.11C183.006 70.302 171.677 67.078 167.499 58.998C164.32 52.851 164.088 52.93 185.058 53.045C199.232 53.122 204.512 52.82 205.663 51.865C206.825 50.9 207.106 49.203 206.792 45.04C205.6 29.248 192.848 19.818 176.897 22.934ZM39.2 24.2C38.333 25.067 38 32.117 38 49.629C38 70.321 38.229 74.086 39.571 75.429C41.659 77.516 44.314 77.416 46.345 75.171C47.788 73.577 48 70.273 48 49.371C48 23.742 47.859 23 43 23C41.57 23 39.86 23.54 39.2 24.2ZM243.243 24.157C242.559 24.841 242 26.29 242 27.378C242 28.466 246.99 38.782 253.09 50.303L264.179 71.249L259.074 82.875C256.266 89.269 253.976 95.198 253.984 96.05C254.023 99.914 259.49 101.375 262.218 98.25C263.058 97.287 270.581 81.079 278.934 62.231C289.209 39.048 293.919 27.322 293.495 25.983C292.776 23.72 288.377 22.268 286.281 23.603C285.506 24.096 281.215 32.747 276.745 42.828L268.619 61.155L259.06 42.328C250.79 26.041 249.162 23.46 246.993 23.207C245.614 23.046 243.927 23.473 243.243 24.157ZM188.961 32.601C192.857 34.16 195.983 37.896 197.453 42.75L198.135 45H182.067C170.928 45 166 44.658 166 43.886C166 40.89 170.656 34.885 174.424 33.019C179.342 30.585 183.614 30.462 188.961 32.601Z" fill="#7C7C7C"/>
</svg>
